<?xml version="1.0" encoding="UTF-8" standalone="no"?>
<!DOCTYPE svg PUBLIC "-//W3C//DTD SVG 1.0//EN"
 "http://www.w3.org/TR/2001/REC-SVG-20010904/DTD/svg10.dtd" [
 <!ATTLIST svg xmlns:xlink CDATA #FIXED "http://www.w3.org/1999/xlink">
]>
<!-- Generated by Graphviz version 2.12 (Mon Dec  4 22:04:37 UTC 2006)
     For user: Bill Gates -->
<!-- Title: myGraph Pages: 1 -->
<svg width="3.58in" height="2.89in"
 xmlns="http://www.w3.org/2000/svg" xmlns:xlink="http://www.w3.org/1999/xlink">
<g id="graph0" class="graph" transform="scale(1.33333 1.33333) rotate(0) translate(4 204)">
<title>myGraph</title>
<polygon style="fill:white;stroke:white;" points="-4,4 -4,-204 254,-204 254,4 -4,4"/>
<!-- node1 -->
<g id="node1" class="node"><title>node1</title>
<ellipse style="fill:none;stroke:black;" cx="129" cy="-164" rx="29.971" ry="18"/>
<text text-anchor="middle" x="129" y="-158" style="font-family:Nimbus Roman No9 L;font-weight:regular;font-size:11.34pt;">node1</text>
</g>
<!-- node1&#45;&gt;node1 -->
<g id="edge4" class="edge"><title>node1&#45;&gt;node1</title>
<path style="fill:none;stroke:black;" d="M103,-174C85,-186 93,-200 129,-200 158,-200 169,-191 162,-181"/>
<polygon style="fill:black;stroke:black;" points="164.546,-178.596 155,-174 159.596,-183.546 164.546,-178.596"/>
</g>
<!-- start -->
<g id="node3" class="node"><title>start</title>
<ellipse style="fill:none;stroke:black;" cx="223" cy="-164" rx="27" ry="18"/>
<text text-anchor="middle" x="223" y="-158" style="font-family:Nimbus Roman No9 L;font-weight:regular;font-size:11.34pt;">start</text>
</g>
<!-- node1&#45;&gt;start -->
<g id="edge2" class="edge"><title>node1&#45;&gt;start</title>
<path style="fill:none;stroke:black;" d="M158,-158C167,-157 178,-157 188,-157"/>
<polygon style="fill:black;stroke:black;" points="187.701,-160.488 198,-158 188.398,-153.522 187.701,-160.488"/>
</g>
<!-- start&#45;&gt;node1 -->
<g id="edge8" class="edge"><title>start&#45;&gt;node1</title>
<path style="fill:none;stroke:black;" d="M198,-170C188,-171 178,-171 168,-171"/>
<polygon style="fill:black;stroke:black;" points="168.299,-167.512 158,-170 167.602,-174.478 168.299,-167.512"/>
</g>
<!-- node2 -->
<g id="node5" class="node"><title>node2</title>
<ellipse style="fill:none;stroke:black;" cx="31" cy="-118" rx="29.971" ry="18"/>
<text text-anchor="middle" x="31" y="-112" style="font-family:Nimbus Roman No9 L;font-weight:regular;font-size:11.34pt;">node2</text>
</g>
<!-- node2&#45;&gt;node1 -->
<g id="edge6" class="edge"><title>node2&#45;&gt;node1</title>
<path style="fill:none;stroke:black;" d="M55,-129C67,-135 82,-142 96,-149"/>
<polygon style="fill:black;stroke:black;" points="94.4404,-152.137 105,-153 97.2834,-145.74 94.4404,-152.137"/>
</g>
<!-- node2&#45;&gt;start -->
<g id="edge14" class="edge"><title>node2&#45;&gt;start</title>
<path style="fill:none;stroke:black;" d="M61,-120C88,-123 127,-128 160,-137 171,-140 183,-144 193,-149"/>
<polygon style="fill:black;stroke:black;" points="191.44,-152.137 202,-153 194.283,-145.74 191.44,-152.137"/>
</g>
<!-- node3 -->
<g id="node12" class="node"><title>node3</title>
<ellipse style="fill:none;stroke:black;" cx="129" cy="-72" rx="29.971" ry="18"/>
<text text-anchor="middle" x="129" y="-66" style="font-family:Nimbus Roman No9 L;font-weight:regular;font-size:11.34pt;">node3</text>
</g>
<!-- node2&#45;&gt;node3 -->
<g id="edge12" class="edge"><title>node2&#45;&gt;node3</title>
<path style="fill:none;stroke:black;" d="M55,-107C67,-101 82,-94 96,-87"/>
<polygon style="fill:black;stroke:black;" points="97.2834,-90.2598 105,-83 94.4404,-83.8631 97.2834,-90.2598"/>
</g>
<!-- node4 -->
<g id="node8" class="node"><title>node4</title>
<ellipse style="fill:none;stroke:black;" cx="31" cy="-41" rx="29.971" ry="18"/>
<text text-anchor="middle" x="31" y="-35" style="font-family:Nimbus Roman No9 L;font-weight:regular;font-size:11.34pt;">node4</text>
</g>
<!-- end -->
<g id="node10" class="node"><title>end</title>
<ellipse style="fill:none;stroke:black;" cx="129" cy="-18" rx="27" ry="18"/>
<text text-anchor="middle" x="129" y="-12" style="font-family:Nimbus Roman No9 L;font-weight:regular;font-size:11.34pt;">end</text>
</g>
<!-- node4&#45;&gt;end -->
<g id="edge10" class="edge"><title>node4&#45;&gt;end</title>
<path style="fill:none;stroke:black;" d="M59,-34C70,-32 82,-29 94,-26"/>
<polygon style="fill:black;stroke:black;" points="94.8806,-29.3933 104,-24 93.5078,-22.5292 94.8806,-29.3933"/>
</g>
<!-- node4&#45;&gt;node3 -->
<g id="edge16" class="edge"><title>node4&#45;&gt;node3</title>
<path style="fill:none;stroke:black;" d="M58,-50C69,-53 81,-57 92,-61"/>
<polygon style="fill:black;stroke:black;" points="91.416,-64.4788 102,-64 93.4275,-57.7741 91.416,-64.4788"/>
</g>
</g>
</svg>
